<?xml version="1.0" encoding="UTF-8"?>
<svg width="16px" height="16px" viewBox="0 0 16 16" version="1.1" xmlns="http://www.w3.org/2000/svg" xmlns:xlink="http://www.w3.org/1999/xlink">
    <title>修改支付密码</title>
    <g id="权限&amp;营销" stroke="none" stroke-width="1" fill="none" fill-rule="evenodd">
        <g id="header交互" transform="translate(-1190.000000, -116.000000)" fill-rule="nonzero">
            <g id="顶栏交互" transform="translate(1178.000000, 64.000000)">
                <g id="修改支付密码" transform="translate(12.000000, 52.000000)">
                    <rect id="矩形" fill="#999999" opacity="0" x="0" y="0" width="16" height="16"></rect>
                    <path d="M13.6666667,5 C14.0193956,5.00036891 14.3107765,5.25973231 14.331448,5.59173389 C14.3521196,5.92373547 14.0949269,6.21346289 13.7446667,6.25274286 L13.6666667,6.25714287 L2.66666667,6.25714287 C2.32868346,6.25718491 2.04421071,6.49569019 2.00466667,6.81217143 L2,6.88571428 L2,14.1142857 C2.00004459,14.4329556 2.25300475,14.7011728 2.58866667,14.7384571 L2.66666667,14.7428571 L13.3333333,14.7428571 C13.6713165,14.7428151 13.9557893,14.5043098 13.9953333,14.1878286 L14,14.1142857 L14,7.51428572 C14.0003913,7.18171274 14.2754737,6.90698217 14.6275965,6.88749187 C14.9797194,6.86800156 15.2870061,7.11049749 15.3286667,7.44074286 L15.3333333,7.51428572 L15.3333333,14.1142857 C15.3333333,15.1128076 14.507881,15.9382772 13.4506667,15.9968571 L13.3333333,16 L2.66666667,16 C1.60762826,16 0.732130249,15.2217164 0.67,14.2249143 L0.666666672,14.1142857 L0.666666672,6.88571428 C0.666666672,5.88719237 1.49211899,5.06172282 2.54933333,5.00314287 L2.66666667,5 L13.6666667,5 Z" id="路径" fill="#666666"></path>
                    <path d="M8,-0.000722366617 C10.209139,-0.000722366617 12,1.79035427 12,3.99975927 C12,4.36795357 11.7014833,4.66640414 11.3333333,4.66640414 C10.9651834,4.66640414 10.666723,4.36795357 10.6666667,3.99975927 C10.6666892,2.55278847 9.51303161,1.36974969 8.06668749,1.33356412 C6.62034338,1.29737855 5.408984,2.42124781 5.33666667,3.86640989 L5.33333333,3.99975927 L5.33333333,5.33325314 C5.332942,5.68602448 5.05785962,5.97744039 4.70573678,5.99811442 C4.35361394,6.01878844 4.04632731,5.76156489 4.00466667,5.41126253 L4,5.33325314 L4,3.99975927 C4,1.79035427 5.790861,-0.000722366617 8,-0.000722366617 Z" id="路径" fill="#666666"></path>
                    <path d="M8.62394041,11.0329651 L8.62394041,10.7377804 L10.5996917,10.7377804 C10.930542,10.7377804 11.2002569,10.4983071 11.2002569,10.197635 C11.1943481,9.89573648 10.9261476,9.65481532 10.5996917,9.65815478 L8.87063961,9.65815478 L8.87567428,9.65416356 L10.5953763,8.11754299 C10.7077608,8.01826309 10.7713392,7.88078322 10.7713392,7.73704646 C10.7713392,7.5933097 10.7077608,7.45582984 10.5953763,7.35654993 C10.3566538,7.14781669 9.98323827,7.14781669 9.7445158,7.35654993 L8.02625225,8.89716172 L8.02193682,8.89982255 L8.01690212,8.89716172 L6.29791935,7.36054116 C6.05909974,7.15138831 5.68515919,7.15138831 5.44633959,7.36054116 C5.3339551,7.45982106 5.27037673,7.59730093 5.27037673,7.74103768 C5.27037673,7.88477444 5.3339551,8.02225431 5.44633959,8.12153421 L7.16676085,9.65682437 L7.17107628,9.66081559 L5.44633959,9.66081559 C5.11620858,9.66081559 4.84577448,9.90028892 4.84577448,10.200961 C4.84577448,10.4976419 5.11620858,10.7404412 5.44633959,10.7404412 L7.42281017,10.7404412 L7.42281017,11.9710681 L5.44633959,11.9710681 C5.11620858,11.9710681 4.84577448,12.2105414 4.84577448,12.5112135 C4.84577448,12.8078943 5.11620858,13.0506937 5.44633959,13.0506937 L7.42281017,13.0506937 L7.42281017,13.6605198 C7.42281017,13.9572007 7.69324428,14.2 8.02337528,14.2 C8.35422552,14.2 8.62394039,13.9605267 8.62394041,13.6605198 L8.62394041,13.0433765 L10.5996917,13.0433765 C10.930542,13.0433765 11.2002569,12.8039031 11.2002569,12.5038962 C11.1943481,12.2019977 10.9261476,11.9610766 10.5996917,11.964416 L8.62394041,11.9684073 L8.62394041,11.0329651 Z" id="路径" stroke="#666666" stroke-width="0.2" fill="#666666"></path>
                </g>
            </g>
        </g>
    </g>
</svg>