<?xml version="1.0" encoding="UTF-8"?>
<svg width="16px" height="16px" viewBox="0 0 16 16" version="1.1" xmlns="http://www.w3.org/2000/svg" xmlns:xlink="http://www.w3.org/1999/xlink">
    <title>修改登录密码</title>
    <g id="权限&amp;营销" stroke="none" stroke-width="1" fill="none" fill-rule="evenodd">
        <g id="header交互" transform="translate(-1190.000000, -76.000000)" fill-rule="nonzero">
            <g id="顶栏交互" transform="translate(1178.000000, 64.000000)">
                <g id="修改登录密码" transform="translate(12.000000, 12.000000)">
                    <rect id="矩形" fill="#999999" opacity="0" x="0" y="0" width="16" height="16"></rect>
                    <path d="M10.6666667,5.33333333 C11.0193956,5.33372459 11.3107765,5.60880699 11.331448,5.96092988 C11.3521196,6.31305276 11.0949269,6.62033943 10.7446667,6.662 L10.6666667,6.66666667 L2.66666667,6.66666667 C2.32868346,6.66671126 2.04421071,6.91967141 2.00466667,7.25533333 L2,7.33333333 L2,14 C2.00004459,14.3379832 2.25300475,14.622456 2.58866667,14.662 L2.66666667,14.6666667 L13.3333333,14.6666667 C13.6713165,14.6666221 13.9557893,14.4136619 13.9953333,14.078 L14,14 L14,10 C14.0003913,9.64727109 14.2754737,9.35589018 14.6275965,9.33521864 C14.9797194,9.3145471 15.2870061,9.57173976 15.3286667,9.922 L15.3333333,10 L15.3333333,14 C15.3333333,15.0590384 14.507881,15.9345364 13.4506667,15.9966667 L13.3333333,16 L2.66666667,16 C1.60762826,16 0.732130249,15.1745477 0.67,14.1173333 L0.666666672,14 L0.666666672,7.33333333 C0.666666672,6.27429493 1.49211899,5.39879693 2.54933333,5.33666667 L2.66666667,5.33333333 L10.6666667,5.33333333 Z" id="路径" fill="#666666"></path>
                    <path d="M15.0333333,4.86666667 C15.2043273,4.99095041 15.3118648,5.18427017 15.3272817,5.3950964 C15.3426987,5.60592264 15.2644282,5.81282982 15.1133333,5.96066667 L9.82,12.086 L8.23333333,12.67 C8.14875146,12.6801638 8.06385475,12.6537245 8,12.5973333 L8,12.524 L8.53333333,11.0653333 L13.8266667,4.94 C14.141473,4.59034426 14.6785007,4.55770723 15.0333333,4.86666667 L15.0333333,4.86666667 Z" id="路径" fill="#666666"></path>
                    <path d="M8,0 C10.209139,0 12,1.790861 12,4 C12,4.36814997 11.7014833,4.66656461 11.3333333,4.66656461 C10.9651834,4.66656461 10.666723,4.36814997 10.6666667,4 C10.6666892,2.55320341 9.51303161,1.37030706 8.06668749,1.33412585 C6.62034338,1.29794463 5.408984,2.42167858 5.33666667,3.86666667 L5.33333333,4 L5.33333333,5.33333333 C5.332942,5.68606219 5.05785962,5.97744302 4.70573678,5.99811456 C4.35361394,6.01878609 4.04632731,5.76159351 4.00466667,5.41133333 L4,5.33333333 L4,4 C4,1.790861 5.790861,0 8,0 Z" id="路径" fill="#666666"></path>
                </g>
            </g>
        </g>
    </g>
</svg>