<?xml version="1.0" encoding="UTF-8"?>
<svg width="16px" height="16px" viewBox="0 0 16 16" version="1.1" xmlns="http://www.w3.org/2000/svg" xmlns:xlink="http://www.w3.org/1999/xlink">
    <title>退出登录</title>
    <g id="权限&amp;营销" stroke="none" stroke-width="1" fill="none" fill-rule="evenodd">
        <g id="header交互" transform="translate(-1190.000000, -156.000000)" fill="#666666" fill-rule="nonzero">
            <g id="顶栏交互" transform="translate(1178.000000, 64.000000)">
                <g id="退出登录" transform="translate(12.000000, 92.000000)">
                    <path d="M8.00204445,16 C3.58903172,16 0,12.3520833 0,7.86666667 C0,5.01041667 1.45528985,2.4125 3.89033821,0.920833333 C4.25313582,0.7 4.72866715,0.816666667 4.94798548,1.1875 C5.16730381,1.55833333 5.05252038,2.03958333 4.68562336,2.26458333 C2.71585781,3.47083333 1.54137741,5.56666667 1.54137741,7.86875 C1.54137741,11.4875 4.43965888,14.4333333 8,14.4333333 C11.5603306,14.4333333 14.4586121,11.4875 14.4586121,7.86875 C14.4586121,5.56666667 13.2841317,3.47083333 11.3143661,2.26458333 C10.9495188,2.04166667 10.8326857,1.56041667 11.0499543,1.1875 C11.273372,0.816666667 11.7468537,0.7 12.1096513,0.920833333 C14.5446996,2.4125 16,5.01041667 16,7.86666667 C16.0040889,12.3520833 12.4150572,16 8.00204445,16 Z M8.00204445,8.24791667 C7.57570602,8.24791667 7.23135574,7.89791667 7.23135574,7.46458333 L7.23135574,0.783333333 C7.23135574,0.35 7.57570602,0 8.00204445,0 C8.42838288,0 8.77274221,0.35 8.77274221,0.783333333 L8.77274221,7.4625 C8.77478286,7.89583333 8.42838288,8.24791667 8.00204445,8.24791667 L8.00204445,8.24791667 Z" id="形状"></path>
                </g>
            </g>
        </g>
    </g>
</svg>