<?xml version="1.0" encoding="utf-8"?>
<!-- Generator: Adobe Illustrator 23.0.0, SVG Export Plug-In . SVG Version: 6.00 Build 0)  -->
<svg version="1.1" id="图层_1" xmlns="http://www.w3.org/2000/svg" xmlns:xlink="http://www.w3.org/1999/xlink" x="0px" y="0px"
	 viewBox="0 0 20 20" style="enable-background:new 0 0 20 20;" xml:space="preserve">
<style type="text/css">
	.st0{}
	.st1{}
	.st2{}
</style>
<g id="页面-1">
	<g id="导航收起" transform="translate(-20.000000, -200.000000)">
		<g id="编组" transform="translate(0.000000, 180.000000)">
			<g id="资产" transform="translate(20.000000, 20.000000)">
				<g id="矩形" class="st0">
					<rect class="st1" width="20" height="20"/>
				</g>
				<g id="椭圆形">
					<path class="st2" d="M10,20C4.5,20,0,15.5,0,10S4.5,0,10,0s10,4.5,10,10S15.5,20,10,20z M10,1.9c-4.5,0-8.1,3.6-8.1,8.1
						s3.6,8.1,8.1,8.1s8.1-3.6,8.1-8.1S14.5,1.9,10,1.9z"/>
				</g>
				<g id="形状结合">
					<path class="st1" d="M10,16.5L10,16.5c-0.6,0-1-0.4-1-1v-1.7H6.5c-0.6,0-1-0.4-1-1s0.4-1,1-1H9v-1.5H6.5c-0.6,0-1-0.4-1-1
						s0.4-1,1-1h2L5.8,5.7c-0.4-0.4-0.4-1,0-1.4s1-0.4,1.4,0L10,7.1l2.8-2.8c0.4-0.4,1-0.4,1.4,0s0.4,1,0,1.4l-2.7,2.7h2
						c0.6,0,1,0.4,1,1s-0.4,1-1,1H11v1.5h2.5c0.6,0,1,0.4,1,1s-0.4,1-1,1H11v1.7C11,16.1,10.5,16.5,10,16.5z"/>
				</g>
			</g>
		</g>
	</g>
</g>
</svg>
