<?xml version="1.0" encoding="utf-8"?>
<!-- Generator: Adobe Illustrator 23.1.0, SVG Export Plug-In . SVG Version: 6.00 Build 0)  -->
<svg version="1.1" id="图层_1" xmlns="http://www.w3.org/2000/svg" xmlns:xlink="http://www.w3.org/1999/xlink" x="0px" y="0px"
	 viewBox="0 0 20 20" style="enable-background:new 0 0 20 20;" xml:space="preserve">
<style type="text/css">
	.st0{}
</style>
<g id="页面-1">
	<g id="导航收起" transform="translate(-20.000000, -500.000000)">
		<g id="编组" transform="translate(0.000000, 180.000000)">
			<g id="监控信息" transform="translate(0.000000, 300.000000)">
				<g id="icon监控信息" transform="translate(20.000000, 20.000000)">
					<g id="路径-2备份">
						<path class="st0" d="M16.2,18.5H3.8c-0.6,0-1-0.4-1-1s0.4-1,1-1h12.5c0.6,0,1,0.4,1,1S16.8,18.5,16.2,18.5z"/>
					</g>
					<g id="路径-7">
						<path class="st0" d="M5,12.2c-0.2,0-0.4-0.1-0.6-0.2c-0.4-0.3-0.5-1-0.2-1.4L7,7c0.3-0.4,0.8-0.5,1.3-0.3l2.9,1.5l3.1-3.9
							c0.3-0.4,1-0.5,1.4-0.2s0.5,1,0.2,1.4L12.3,10c-0.3,0.4-0.8,0.5-1.2,0.3l-3-1.4l-2.3,3C5.6,12.1,5.3,12.2,5,12.2z"/>
					</g>
					<g id="矩形">
						<path class="st0" d="M18.8,16H1.2c-0.6,0-1-0.4-1-1V2.5c0-0.6,0.4-1,1-1h17.5c0.6,0,1,0.4,1,1V15C19.8,15.6,19.3,16,18.8,16z
							 M2.2,14h15.5V3.5H2.2V14z"/>
					</g>
				</g>
			</g>
		</g>
	</g>
</g>
</svg>
