<?xml version="1.0" encoding="utf-8"?>
<!-- Generator: Adobe Illustrator 23.1.0, SVG Export Plug-In . SVG Version: 6.00 Build 0)  -->
<svg version="1.1" id="图层_1" xmlns="http://www.w3.org/2000/svg" xmlns:xlink="http://www.w3.org/1999/xlink" x="0px" y="0px"
	 viewBox="0 0 20 20" style="enable-background:new 0 0 20 20;" xml:space="preserve">
<style type="text/css">
	.st0{}
</style>
<g id="页面-1">
	<g id="导航收起" transform="translate(-20.000000, -320.000000)">
		<g id="编组" transform="translate(0.000000, 180.000000)">
			<g id="经营报表" transform="translate(0.000000, 120.000000)">
				<g id="icon经营报表" transform="translate(20.000000, 20.000000)">
					<g id="路径-2备份">
						<path class="st0" d="M18.8,19.8H2.5c-1.2,0-2.2-1-2.2-2.2V1.2c0-0.6,0.4-1,1-1s1,0.4,1,1v16.2c0,0.1,0.1,0.2,0.2,0.2h16.2
							c0.6,0,1,0.4,1,1S19.3,19.8,18.8,19.8z"/>
					</g>
					<g id="路径-6">
						<path class="st0" d="M5,19.8c-0.6,0-1-0.4-1-1V10c0-0.6,0.4-1,1-1s1,0.4,1,1v8.8C6,19.3,5.6,19.8,5,19.8z"/>
					</g>
					<g id="路径-6备份">
						<path class="st0" d="M8.8,19.1c-0.6,0-1-0.4-1-1V5.6c0-0.6,0.4-1,1-1s1,0.4,1,1v12.5C9.8,18.7,9.3,19.1,8.8,19.1z"/>
					</g>
					<g id="路径-6备份-2">
						<path class="st0" d="M12.5,19.8c-0.6,0-1-0.4-1-1v-6.1c0-0.6,0.4-1,1-1s1,0.4,1,1v6.1C13.5,19.3,13.1,19.8,12.5,19.8z"/>
					</g>
					<g id="路径-6备份-3">
						<path class="st0" d="M16.2,19.8c-0.6,0-1-0.4-1-1v-10c0-0.6,0.4-1,1-1s1,0.4,1,1v10C17.2,19.3,16.8,19.8,16.2,19.8z"/>
					</g>
				</g>
			</g>
		</g>
	</g>
</g>
</svg>
