<?xml version="1.0" encoding="utf-8"?>
<!-- Generator: Adobe Illustrator 23.1.0, SVG Export Plug-In . SVG Version: 6.00 Build 0)  -->
<svg version="1.1" id="图层_1" xmlns="http://www.w3.org/2000/svg" xmlns:xlink="http://www.w3.org/1999/xlink" x="0px" y="0px"
	 viewBox="0 0 20 20" style="enable-background:new 0 0 20 20;" xml:space="preserve">
<style type="text/css">
	.st0{}
</style>
<g id="页面-1">
	<g id="导航收起备份" transform="translate(-20.000000, -20.000000)">
		<g id="icon首页备份" transform="translate(20.000000, 20.000000)">
			<g id="路径">
				<path class="st0" d="M18.6,11c-0.3,0-0.5-0.1-0.7-0.3l-8-8l-8,8c-0.4,0.4-1,0.4-1.4,0s-0.4-1,0-1.4l8.8-8.8c0.4-0.4,1-0.4,1.4,0
					l8.8,8.8c0.4,0.4,0.4,1,0,1.4C19.1,10.9,18.8,11,18.6,11z"/>
			</g>
			<g id="路径-2">
				<path class="st0" d="M14.8,19.8h-2.5c-0.6,0-1-0.4-1-1V16h-3v2.8c0,0.6-0.4,1-1,1H4.8c-1.2,0-2.2-1-2.2-2.2v-6.4
					c0-0.6,0.4-1,1-1s1,0.4,1,1v6.4c0,0.1,0.1,0.2,0.2,0.2h1.5V15c0-0.6,0.4-1,1-1h5c0.6,0,1,0.4,1,1v2.8h1.5c0.1,0,0.2-0.1,0.2-0.2
					v-6.4c0-0.6,0.4-1,1-1c0.6,0,1,0.4,1,1v6.4C17,18.7,16,19.8,14.8,19.8z"/>
			</g>
		</g>
	</g>
</g>
</svg>
