<?xml version="1.0" encoding="utf-8"?>
<!-- Generator: Adobe Illustrator 23.1.0, SVG Export Plug-In . SVG Version: 6.00 Build 0)  -->
<svg version="1.1" id="图层_1" xmlns="http://www.w3.org/2000/svg" xmlns:xlink="http://www.w3.org/1999/xlink" x="0px" y="0px"
	 viewBox="0 0 21 21" style="enable-background:new 0 0 21 21;" xml:space="preserve">
<style type="text/css">
	.st0{}
</style>
<g id="页面-1">
	<g id="导航收起" transform="translate(-20.000000, -440.000000)">
		<g id="编组" transform="translate(0.000000, 180.000000)">
			<g id="财务管理" transform="translate(0.000000, 240.000000)">
				<g id="icon财务管理" transform="translate(20.000000, 20.000000)">
					<g transform="translate(1.250000, 1.250000)">
						<g id="椭圆形">
							<path class="st0" d="M9.2,18.9c-4.3,0-9.8,0-9.8-6c0-5.1,3.9-8.5,9.8-8.5c5.8,0,9.8,3.4,9.8,8.5C19,18.9,13.6,18.9,9.2,18.9z
								 M9.2,6.4c-3.6,0-7.8,1.7-7.8,6.5c0,3.6,2.4,4,7.8,4s7.8-0.4,7.8-4C17,8.1,12.8,6.4,9.2,6.4z"/>
						</g>
						<g id="编组-2" transform="translate(6.350000, 7.202119)">
							<g id="路径-8">
								<path class="st0" d="M5.4,5.1h-5c-0.6,0-1-0.4-1-1s0.4-1,1-1h5c0.6,0,1,0.4,1,1S6,5.1,5.4,5.1z"/>
							</g>
							<g id="路径-8备份">
								<path class="st0" d="M5.4,7.6h-5c-0.6,0-1-0.4-1-1s0.4-1,1-1h5c0.6,0,1,0.4,1,1S6,7.6,5.4,7.6z"/>
							</g>
							<g id="路径-9">
								<path class="st0" d="M2.9,9.5L2.9,9.5c-0.6,0-1-0.4-1-1V3.4c0-0.6,0.4-1,1-1l0,0c0.6,0,1,0.4,1,1v5.1
									C3.9,9.1,3.4,9.5,2.9,9.5z"/>
							</g>
							<g id="路径-10">
								<path class="st0" d="M2.9,4.5c-0.3,0-0.5-0.1-0.7-0.3l-2.5-2.5c-0.4-0.4-0.4-1,0-1.4s1-0.4,1.4,0l2.5,2.5
									c0.4,0.4,0.4,1,0,1.4C3.4,4.4,3.2,4.5,2.9,4.5z"/>
							</g>
							<g id="路径-10备份">
								<path class="st0" d="M2.9,4.5c-0.3,0-0.5-0.1-0.7-0.3c-0.4-0.4-0.4-1,0-1.4l2.5-2.5c0.4-0.4,1-0.4,1.4,0s0.4,1,0,1.4
									L3.6,4.2C3.4,4.4,3.1,4.5,2.9,4.5z"/>
							</g>
						</g>
						<g>
							<path class="st0" d="M9.2,5.2c-4.5,0-4.8-2.7-4.8-3.5c0-0.2,0-1,0.5-1.5c0.6-0.6,1.4-0.5,2.5-0.5c0.5,0,1,0.1,1.7,0.1
								s1.2,0,1.7-0.1c1.2,0,2-0.1,2.6,0.5c0.5,0.5,0.5,1.2,0.5,1.5C13.9,2.5,13.6,5.2,9.2,5.2z M6.4,1.7c0,1,1,1.5,2.7,1.5
								s2.8-0.5,2.8-1.5c-0.2,0-0.6,0-0.9,0c-0.5,0-1.1,0.1-1.8,0.1s-1.4,0-1.9-0.1C7,1.7,6.6,1.7,6.4,1.7z"/>
						</g>
					</g>
				</g>
			</g>
		</g>
	</g>
</g>
</svg>
