<?xml version="1.0" encoding="utf-8"?>
<!-- Generator: Adobe Illustrator 23.1.0, SVG Export Plug-In . SVG Version: 6.00 Build 0)  -->
<svg version="1.1" id="图层_1" xmlns="http://www.w3.org/2000/svg" xmlns:xlink="http://www.w3.org/1999/xlink" x="0px" y="0px"
	 viewBox="0 0 20 20" style="enable-background:new 0 0 20 20;" xml:space="preserve">
<style type="text/css">
	.st0{}
</style>
<g id="页面-1">
	<g id="导航收起" transform="translate(-20.000000, -260.000000)">
		<g id="编组" transform="translate(0.000000, 180.000000)">
			<g id="经营管理" transform="translate(0.000000, 60.000000)">
				<g id="icon经营管理" transform="translate(20.000000, 20.000000)">
					<g id="椭圆形">
						<path class="st0" d="M10,9.8C7.4,9.8,5.3,7.6,5.3,5S7.4,0.2,10,0.2c2.6,0,4.7,2.1,4.7,4.8S12.6,9.8,10,9.8z M10,2.2
							C8.5,2.2,7.3,3.5,7.3,5S8.5,7.8,10,7.8c1.5,0,2.7-1.2,2.7-2.8S11.5,2.2,10,2.2z"/>
					</g>
					<g>
						<path class="st0" d="M10,19.8c-5.2,0-9.8,0-9.8-3.5c0-1.3,0.5-2.5,1.4-3.4c2.4-2.4,6.9-2.6,8.3-2.6c1.4,0,6,0.2,8.4,2.6
							c0.9,0.9,1.4,2.1,1.4,3.4C19.8,19.8,15.2,19.8,10,19.8z M9.9,12.2c-2.4,0-5.4,0.5-6.9,2c-0.6,0.6-0.8,1.2-0.8,2
							c0,1.5,3.9,1.5,7.8,1.5s7.7,0,7.7-1.5c0-0.8-0.2-1.4-0.8-2C15.5,12.8,12.4,12.2,9.9,12.2z"/>
					</g>
					<g id="路径">
						<path class="st0" d="M10.1,17.4c-0.2,0-0.5-0.1-0.7-0.3l-1.6-1.4c-0.2-0.2-0.3-0.5-0.3-0.7v-3.8h2v3.3L10,15l0.5-0.5v-3.3h2
							V15c0,0.3-0.1,0.5-0.3,0.7l-1.4,1.4C10.6,17.3,10.3,17.4,10.1,17.4z"/>
					</g>
				</g>
			</g>
		</g>
	</g>
</g>
</svg>
