<?xml version="1.0" encoding="utf-8"?>
<!-- Generator: Adobe Illustrator 23.1.0, SVG Export Plug-In . SVG Version: 6.00 Build 0)  -->
<svg version="1.1" id="图层_1" xmlns="http://www.w3.org/2000/svg" xmlns:xlink="http://www.w3.org/1999/xlink" x="0px" y="0px"
	 viewBox="0 0 20 20" style="enable-background:new 0 0 20 20;" xml:space="preserve">
<style type="text/css">
	.st0{}
</style>
<g id="页面-1">
	<g id="导航收起" transform="translate(-20.000000, -140.000000)">
		<g id="权限管理" transform="translate(0.000000, 120.000000)">
			<g id="icon权限管理" transform="translate(20.000000, 20.000000)">
				<g id="椭圆形">
					<path class="st0" d="M10,9.8C7.4,9.8,5.2,7.6,5.2,5S7.4,0.2,10,0.2s4.8,2.1,4.8,4.8S12.6,9.8,10,9.8z M10,2.2
						C8.5,2.2,7.2,3.5,7.2,5S8.5,7.8,10,7.8s2.8-1.2,2.8-2.8S11.5,2.2,10,2.2z"/>
				</g>
				<g id="路径">
					<path class="st0" d="M1.2,19.8c-0.6,0-1-0.4-1-1c0-4.7,3.8-8.5,8.5-8.5c0.6,0,1,0.4,1,1c0,0.6-0.4,1-1,1
						c-3.6,0-6.5,2.9-6.5,6.5C2.2,19.3,1.8,19.8,1.2,19.8z"/>
				</g>
				<g id="路径-5">
					<path class="st0" d="M17.5,19.8c-0.3,0-0.5-0.1-0.7-0.3c-0.3-0.3-0.3-0.6-0.3-1h-2.8c-0.6,0-1-0.4-1-1s0.4-1,1-1h5
						c0.4,0,0.8,0.2,0.9,0.6c0.2,0.4,0.1,0.8-0.2,1.1l-1.2,1.2C18,19.7,17.8,19.8,17.5,19.8z"/>
				</g>
				<g id="路径-5备份">
					<path class="st0" d="M18.8,15h-5c-0.4,0-0.8-0.2-0.9-0.6c-0.2-0.4-0.1-0.8,0.2-1.1l1.2-1.2c0.4-0.4,1-0.4,1.4,0
						c0.3,0.3,0.3,0.6,0.3,1h2.8c0.6,0,1,0.4,1,1S19.3,15,18.8,15z"/>
				</g>
			</g>
		</g>
	</g>
</g>
</svg>
