<?xml version="1.0" encoding="utf-8"?>
<!-- Generator: Adobe Illustrator 23.1.0, SVG Export Plug-In . SVG Version: 6.00 Build 0)  -->
<svg version="1.1" id="图层_1" xmlns="http://www.w3.org/2000/svg" xmlns:xlink="http://www.w3.org/1999/xlink" x="0px" y="0px"
	 viewBox="0 0 21 21" style="enable-background:new 0 0 21 21;" xml:space="preserve">
<style type="text/css">
	.st0{}
</style>
<g id="页面-1">
	<g id="导航收起" transform="translate(-20.000000, -559.000000)">
		<g id="编组" transform="translate(0.000000, 180.000000)">
			<g id="营销推广" transform="translate(0.000000, 360.000000)">
				<g id="icon营销推广" transform="translate(20.000000, 20.000000)">
					<g transform="translate(1.250000, 0.000000)">
						<g id="矩形">
							<path class="st0" d="M15.5,19.2H3c-1.2,0-2.2-1-2.2-2.2v-6.2c0-0.6,0.4-1,1-1h15c0.6,0,1,0.4,1,1V17
								C17.8,18.1,16.7,19.2,15.5,19.2z M2.8,11.6v5.2C2.8,16.9,2.9,17,3,17h12.5c0.1,0,0.2-0.1,0.2-0.2v-5.2H2.8z"/>
						</g>
						<g id="矩形备份-9">
							<path class="st0" d="M18,11.6H0.5c-0.6,0-1-0.4-1-1v-5c0-0.6,0.4-1,1-1H18c0.6,0,1,0.4,1,1v5C19,11.2,18.6,11.6,18,11.6z
								 M1.5,9.6H17v-3H1.5V9.6z"/>
						</g>
						<g id="椭圆形">
							<path class="st0" d="M7.9,6.5c-1,0-2.1-0.5-3.2-1.4C2.9,3.6,2.3,1.6,3.2,0.5c1-1.1,3-0.8,4.8,0.7s2.5,3.5,1.5,4.6
								C9.2,6.3,8.6,6.5,7.9,6.5z M4.8,1.8c0,0.3,0.4,1,1.2,1.8c0.9,0.7,1.7,0.9,2,0.9c0-0.3-0.4-1-1.2-1.8C5.9,2,5.1,1.8,4.8,1.8z"
								/>
						</g>
						<g id="椭圆形备份">
							<path class="st0" d="M10.5,6.5c-0.7,0-1.2-0.2-1.6-0.7C8.4,5.2,8.3,4.3,8.7,3.3C9,2.6,9.6,1.8,10.4,1.2s1.6-1.1,2.4-1.3
								c1-0.2,1.9,0,2.4,0.6c1,1.1,0.3,3.1-1.5,4.6C12.6,6,11.5,6.5,10.5,6.5z M10.5,4.5c0.3,0,1.1-0.2,2-0.9s1.2-1.5,1.2-1.8
								c-0.3,0-1.1,0.2-2,0.9C10.8,3.5,10.5,4.2,10.5,4.5z"/>
						</g>
						<g id="路径-11">
							<path class="st0" d="M9.2,19.2c-0.6,0-1-0.4-1-1V5.6c0-0.6,0.4-1,1-1s1,0.4,1,1v12.5C10.2,18.7,9.8,19.2,9.2,19.2z"/>
						</g>
					</g>
				</g>
			</g>
		</g>
	</g>
</g>
</svg>
